<svg width="140" height="140" viewBox="0 0 140 140" fill="none" xmlns="http://www.w3.org/2000/svg">
<path d="M110.833 110.833H29.1667V46.6666H110.833M93.3333 5.83331V17.5H46.6667V5.83331H35V17.5H29.1667C22.6917 17.5 17.5 22.6916 17.5 29.1666V110.833C17.5 113.928 18.7292 116.895 20.9171 119.083C23.105 121.271 26.0725 122.5 29.1667 122.5H110.833C113.928 122.5 116.895 121.271 119.083 119.083C121.271 116.895 122.5 113.928 122.5 110.833V29.1666C122.5 26.0725 121.271 23.105 119.083 20.9171C116.895 18.7291 113.928 17.5 110.833 17.5H105V5.83331M99.1667 70H70V99.1666H99.1667V70Z" fill="#F9FEFB"/>
</svg>
