<svg width="140" height="140" viewBox="0 0 140 140" fill="none" xmlns="http://www.w3.org/2000/svg">
<path d="M70 61.25C74.8325 61.25 78.75 57.3325 78.75 52.5C78.75 47.6675 74.8325 43.75 70 43.75C65.1675 43.75 61.25 47.6675 61.25 52.5C61.25 57.3325 65.1675 61.25 70 61.25Z" fill="#F9FEFB"/>
<path d="M70 8.75C45.8773 8.75 26.25 27.5215 26.25 50.5859C26.25 61.5699 31.2566 76.1769 41.1305 94.0023C49.0602 108.314 58.234 121.256 63.0055 127.695C63.8117 128.796 64.8659 129.69 66.0826 130.307C67.2993 130.924 68.6441 131.245 70.0082 131.245C71.3723 131.245 72.7172 130.924 73.9338 130.307C75.1505 129.69 76.2047 128.796 77.0109 127.695C81.7742 121.256 90.9563 108.314 98.8859 94.0023C108.743 76.1824 113.75 61.5754 113.75 50.5859C113.75 27.5215 94.1227 8.75 70 8.75ZM70 70C66.5388 70 63.1554 68.9736 60.2775 67.0507C57.3997 65.1278 55.1566 62.3947 53.8321 59.197C52.5076 55.9993 52.161 52.4806 52.8363 49.0859C53.5115 45.6912 55.1782 42.573 57.6256 40.1256C60.0731 37.6782 63.1913 36.0115 66.5859 35.3363C69.9806 34.661 73.4992 35.0076 76.697 36.3321C79.8947 37.6566 82.6278 39.8997 84.5507 42.7775C86.4736 45.6554 87.5 49.0388 87.5 52.5C87.4949 57.1397 85.6496 61.588 82.3688 64.8688C79.088 68.1496 74.6397 69.9949 70 70Z" fill="#F9FEFB"/>
</svg>
