<svg width="47" height="36" viewBox="0 0 47 36" fill="none" xmlns="http://www.w3.org/2000/svg">
<path d="M17.7115 0.525352C13.2166 0.525352 9.13779 1.1916 6.09497 2.31891C3.05215 3.44605 0.897278 5.10877 0.897278 7.14578C0.897278 7.35955 0.920992 7.56949 0.96697 7.77486L0.963407 8.26352C0.90162 15.1588 2.77249 21.9555 2.62999 28.6186C2.58858 30.5562 4.22131 32.2707 6.86046 33.4091C9.4996 34.5475 13.1836 35.1974 17.6732 35.1974C22.1661 35.1974 25.6151 34.53 28.0163 33.365C30.4176 32.1999 31.7355 30.4777 31.7355 28.6315C31.7355 28.3679 31.7415 28.1038 31.7494 27.8389C36.4411 27.7462 40.1342 25.8883 42.5622 23.4668C45.0375 20.9978 46.3503 17.9516 46.4238 15.1802C46.4973 12.4087 45.3124 9.61474 42.0646 8.47654C40.4406 7.90744 38.6588 7.92981 36.5817 8.38297C35.8959 8.53252 35.1848 8.73647 34.4525 8.9964C34.4603 8.75269 34.4664 8.50898 34.4664 8.2686V7.70964C34.5031 7.52549 34.522 7.33668 34.522 7.1457C34.522 5.10868 32.3671 3.44613 29.3241 2.31891C26.2815 1.19152 22.2061 0.525352 17.7115 0.525352ZM17.7115 2.07977C21.9275 2.07977 25.7368 2.72457 28.4023 3.71213C31.0679 4.69945 32.4413 5.95576 32.4413 7.1457C32.4413 8.33564 31.0679 9.59445 28.4023 10.582C25.7368 11.5693 21.9275 12.2117 17.7115 12.2117C13.4955 12.2117 9.68585 11.5694 7.02044 10.5819C4.35491 9.59461 2.97778 8.33564 2.97778 7.1457C2.97778 5.95576 4.35491 4.69945 7.02044 3.71213C9.68585 2.72448 13.4953 2.07969 17.7113 2.07969L17.7115 2.07977ZM9.95672 5.32619C7.37502 5.88406 5.7366 6.71393 5.7366 7.63969C5.7366 9.3193 11.1247 10.6808 17.7705 10.6808C24.4163 10.6808 29.801 9.31921 29.801 7.63961C29.801 6.78587 28.4071 6.01382 26.1653 5.46144C26.7516 5.80288 27.0804 6.18442 27.0804 6.58958C27.0804 8.01906 22.9875 9.17839 17.9375 9.17839C12.8877 9.17839 8.79467 8.01906 8.79467 6.58949C8.79467 6.13052 9.21638 5.69999 9.95672 5.32619ZM39.2707 11.0057C39.7539 11.0038 40.1419 11.0717 40.443 11.1773C41.6483 11.5995 42.4921 13.0746 42.4367 15.1802C42.381 17.2856 41.3553 19.7973 39.4482 21.6992C37.634 23.5083 35.2059 24.7229 31.9752 24.852C32.4597 20.7062 33.5594 16.4935 34.1216 12.5547C36.4288 11.4034 38.1176 11.0104 39.2705 11.0056L39.2707 11.0057Z" fill="#F9FEFB"/>
</svg>
