<svg width="140" height="140" viewBox="0 0 140 140" fill="none" xmlns="http://www.w3.org/2000/svg">
<g clip-path="url(#clip0_2005_82)">
<path d="M112 0C119.426 0 126.548 3.10533 131.799 8.63284C137.05 14.1604 140 21.6573 140 29.4744V88.4231C140 96.2402 137.05 103.737 131.799 109.265C126.548 114.792 119.426 117.898 112 117.898H78.932L45.598 138.95C44.5941 139.584 43.4552 139.943 42.2854 139.994C41.1156 140.045 39.9524 139.786 38.9022 139.241C37.852 138.697 36.9483 137.883 36.274 136.876C35.5996 135.868 35.176 134.699 35.042 133.475L35 132.635V117.898H28C20.8163 117.898 13.9074 114.991 8.70232 109.779C3.49723 104.568 0.394186 97.4494 0.0350008 89.8969L0 88.4231V29.4744C0 21.6573 2.94999 14.1604 8.20101 8.63284C13.452 3.10533 20.5739 0 28 0H112ZM84 66.3174H42C40.1435 66.3174 38.363 67.0937 37.0503 68.4756C35.7375 69.8574 35 71.7317 35 73.6859C35 75.6402 35.7375 77.5145 37.0503 78.8963C38.363 80.2782 40.1435 81.0545 42 81.0545H84C85.8565 81.0545 87.637 80.2782 88.9497 78.8963C90.2625 77.5145 91 75.6402 91 73.6859C91 71.7317 90.2625 69.8574 88.9497 68.4756C87.637 67.0937 85.8565 66.3174 84 66.3174ZM98 36.843H42C40.1435 36.843 38.363 37.6193 37.0503 39.0012C35.7375 40.3831 35 42.2573 35 44.2116C35 46.1658 35.7375 48.0401 37.0503 49.422C38.363 50.8038 40.1435 51.5802 42 51.5802H98C99.8565 51.5802 101.637 50.8038 102.95 49.422C104.263 48.0401 105 46.1658 105 44.2116C105 42.2573 104.263 40.3831 102.95 39.0012C101.637 37.6193 99.8565 36.843 98 36.843Z" fill="#F9FEFB"/>
</g>
<defs>
<clipPath id="clip0_2005_82">
<rect width="140" height="140" fill="white"/>
</clipPath>
</defs>
</svg>
